<?xml version="1.0" standalone="no"?>
<!DOCTYPE svg PUBLIC "-//W3C//DTD SVG 20010904//EN"
 "http://www.w3.org/TR/2001/REC-SVG-20010904/DTD/svg10.dtd">
<svg version="1.0" xmlns="http://www.w3.org/2000/svg"
 width="1000.000000pt" height="1000.000000pt" viewBox="0 0 1000.000000 1000.000000"
 preserveAspectRatio="xMidYMid meet">

<g transform="translate(0.000000,1000.000000) scale(0.100000,-0.100000)"
fill="#000000" stroke="none">
<path d="M490 8510 l0 -280 160 0 c153 0 160 1 160 20 0 13 7 20 20 20 13 0
20 7 20 20 0 13 7 20 20 20 18 0 20 7 20 80 0 73 -2 80 -20 80 -13 0 -20 7
-20 20 0 13 -7 20 -20 20 -13 0 -20 7 -20 20 0 13 7 20 20 20 18 0 20 7 20 80
0 73 -2 80 -20 80 -13 0 -20 7 -20 20 0 13 -7 20 -20 20 -13 0 -20 7 -20 20 0
19 -7 20 -140 20 l-140 0 0 -280z m240 180 c0 -13 7 -20 20 -20 17 0 20 -7 20
-40 0 -33 -3 -40 -20 -40 -13 0 -20 -7 -20 -20 0 -18 -7 -20 -80 -20 l-80 0 0
80 0 80 80 0 c73 0 80 -2 80 -20z m40 -240 c0 -13 7 -20 20 -20 17 0 20 -7 20
-40 0 -33 -3 -40 -20 -40 -13 0 -20 -7 -20 -20 0 -19 -7 -20 -100 -20 l-100 0
0 80 0 80 100 0 c93 0 100 -1 100 -20z"/>
<path d="M1090 8770 c0 -13 -7 -20 -20 -20 -13 0 -20 -7 -20 -20 0 -13 -7 -20
-20 -20 -17 0 -20 -7 -20 -40 0 -33 -3 -40 -20 -40 -19 0 -20 -7 -20 -200 l0
-200 40 0 40 0 0 80 0 80 120 0 120 0 0 -80 0 -80 40 0 40 0 0 280 0 280 -140
0 c-133 0 -140 -1 -140 -20z m200 -180 l0 -120 -120 0 -120 0 0 80 c0 73 2 80
20 80 13 0 20 7 20 20 0 13 7 20 20 20 13 0 20 7 20 20 0 18 7 20 80 20 l80 0
0 -120z"/>
<path d="M1530 8770 c0 -13 -7 -20 -20 -20 -13 0 -20 -7 -20 -20 0 -13 -7 -20
-20 -20 -19 0 -20 -7 -20 -200 0 -193 1 -200 20 -200 13 0 20 -7 20 -20 0 -13
7 -20 20 -20 13 0 20 -7 20 -20 0 -19 7 -20 120 -20 113 0 120 1 120 20 0 13
7 20 20 20 13 0 20 7 20 20 0 13 7 20 20 20 17 0 20 7 20 40 l0 40 -40 0 c-33
0 -40 -3 -40 -20 0 -13 -7 -20 -20 -20 -13 0 -20 -7 -20 -20 0 -18 -7 -20 -80
-20 -73 0 -80 2 -80 20 0 13 -7 20 -20 20 -19 0 -20 7 -20 160 0 153 1 160 20
160 13 0 20 7 20 20 0 18 7 20 80 20 73 0 80 -2 80 -20 0 -13 7 -20 20 -20 13
0 20 -7 20 -20 0 -17 7 -20 40 -20 l40 0 0 40 c0 33 -3 40 -20 40 -13 0 -20 7
-20 20 0 13 -7 20 -20 20 -13 0 -20 7 -20 20 0 19 -7 20 -120 20 -113 0 -120
-1 -120 -20z"/>
<path d="M1930 8510 l0 -280 40 0 40 0 0 80 c0 73 2 80 20 80 13 0 20 7 20 20
0 13 7 20 20 20 13 0 20 7 20 20 0 13 7 20 20 20 13 0 20 -7 20 -20 0 -13 7
-20 20 -20 13 0 20 -7 20 -20 0 -13 7 -20 20 -20 13 0 20 -7 20 -20 0 -13 7
-20 20 -20 18 0 20 -7 20 -60 l0 -60 40 0 40 0 0 80 c0 73 -2 80 -20 80 -13 0
-20 7 -20 20 0 13 -7 20 -20 20 -13 0 -20 7 -20 20 0 13 -7 20 -20 20 -13 0
-20 7 -20 20 0 13 -7 20 -20 20 -13 0 -20 7 -20 20 0 13 7 20 20 20 13 0 20 7
20 20 0 13 7 20 20 20 13 0 20 7 20 20 0 13 7 20 20 20 13 0 20 7 20 20 0 13
7 20 20 20 18 0 20 7 20 60 l0 60 -40 0 -40 0 0 -40 c0 -33 -3 -40 -20 -40
-13 0 -20 -7 -20 -20 0 -13 -7 -20 -20 -20 -13 0 -20 -7 -20 -20 0 -13 -7 -20
-20 -20 -13 0 -20 -7 -20 -20 0 -13 -7 -20 -20 -20 -13 0 -20 -7 -20 -20 0
-13 -7 -20 -20 -20 -13 0 -20 -7 -20 -20 0 -13 -7 -20 -20 -20 -19 0 -20 7
-20 140 l0 140 -40 0 -40 0 0 -280z"/>
<path d="M2410 8510 l0 -280 40 0 40 0 0 100 0 100 40 0 c33 0 40 -3 40 -20 0
-13 7 -20 20 -20 13 0 20 -7 20 -20 0 -13 7 -20 20 -20 13 0 20 -7 20 -20 0
-13 7 -20 20 -20 13 0 20 -7 20 -20 0 -13 7 -20 20 -20 13 0 20 -7 20 -20 0
-17 7 -20 40 -20 l40 0 0 40 c0 33 -3 40 -20 40 -13 0 -20 7 -20 20 0 13 -7
20 -20 20 -13 0 -20 7 -20 20 0 13 -7 20 -20 20 -13 0 -20 7 -20 20 0 13 7 20
20 20 13 0 20 7 20 20 0 13 7 20 20 20 13 0 20 7 20 20 0 13 7 20 20 20 19 0
20 7 20 100 0 93 -1 100 -20 100 -13 0 -20 7 -20 20 0 13 -7 20 -20 20 -13 0
-20 7 -20 20 0 19 -7 20 -160 20 l-160 0 0 -280z m280 180 c0 -13 7 -20 20
-20 18 0 20 -7 20 -60 0 -53 -2 -60 -20 -60 -13 0 -20 -7 -20 -20 0 -19 -7
-20 -100 -20 l-100 0 0 100 0 100 100 0 c93 0 100 -1 100 -20z"/>
<path d="M2970 8770 c0 -13 -7 -20 -20 -20 -13 0 -20 -7 -20 -20 0 -13 -7 -20
-20 -20 -19 0 -20 -7 -20 -200 0 -193 1 -200 20 -200 13 0 20 -7 20 -20 0 -13
7 -20 20 -20 13 0 20 -7 20 -20 0 -19 7 -20 120 -20 113 0 120 1 120 20 0 13
7 20 20 20 13 0 20 7 20 20 0 13 7 20 20 20 19 0 20 7 20 200 0 193 -1 200
-20 200 -13 0 -20 7 -20 20 0 13 -7 20 -20 20 -13 0 -20 7 -20 20 0 19 -7 20
-120 20 -113 0 -120 -1 -120 -20z m200 -80 c0 -13 7 -20 20 -20 19 0 20 -7 20
-160 0 -153 -1 -160 -20 -160 -13 0 -20 -7 -20 -20 0 -18 -7 -20 -80 -20 -73
0 -80 2 -80 20 0 13 -7 20 -20 20 -19 0 -20 7 -20 160 0 153 1 160 20 160 13
0 20 7 20 20 0 18 7 20 80 20 73 0 80 -2 80 -20z"/>
<path d="M3450 8770 c0 -13 -7 -20 -20 -20 -13 0 -20 -7 -20 -20 0 -13 -7 -20
-20 -20 -19 0 -20 -7 -20 -200 0 -193 1 -200 20 -200 13 0 20 -7 20 -20 0 -13
7 -20 20 -20 13 0 20 -7 20 -20 0 -19 7 -20 120 -20 113 0 120 1 120 20 0 13
7 20 20 20 13 0 20 7 20 20 0 13 7 20 20 20 19 0 20 7 20 200 0 193 -1 200
-20 200 -13 0 -20 7 -20 20 0 13 -7 20 -20 20 -13 0 -20 7 -20 20 0 19 -7 20
-120 20 -113 0 -120 -1 -120 -20z m200 -80 c0 -13 7 -20 20 -20 19 0 20 -7 20
-160 0 -153 -1 -160 -20 -160 -13 0 -20 -7 -20 -20 0 -18 -7 -20 -80 -20 -73
0 -80 2 -80 20 0 13 -7 20 -20 20 -19 0 -20 7 -20 160 0 153 1 160 20 160 13
0 20 7 20 20 0 18 7 20 80 20 73 0 80 -2 80 -20z"/>
<path d="M3850 8510 l0 -280 40 0 40 0 0 160 c0 153 1 160 20 160 17 0 20 -7
20 -40 0 -33 3 -40 20 -40 17 0 20 -7 20 -40 l0 -40 40 0 40 0 0 40 c0 33 3
40 20 40 17 0 20 7 20 40 0 33 3 40 20 40 19 0 20 -7 20 -160 l0 -160 40 0 40
0 0 280 0 280 -40 0 -40 0 0 -40 c0 -33 -3 -40 -20 -40 -17 0 -20 -7 -20 -40
0 -33 -3 -40 -20 -40 -17 0 -20 -7 -20 -40 l0 -40 -40 0 -40 0 0 40 c0 33 -3
40 -20 40 -17 0 -20 7 -20 40 0 33 -3 40 -20 40 -17 0 -20 7 -20 40 l0 40 -40
0 -40 0 0 -280z"/>
<path d="M4490 8730 l0 -60 40 0 40 0 0 60 0 60 -40 0 -40 0 0 -60z"/>
<path d="M5770 8750 l0 -40 80 0 80 0 0 -240 0 -240 40 0 40 0 0 240 0 240 80
0 80 0 0 40 0 40 -200 0 -200 0 0 -40z"/>
<path d="M7770 8730 l0 -60 -40 0 -40 0 0 -40 0 -40 40 0 40 0 0 -140 c0 -133
1 -140 20 -140 13 0 20 -7 20 -20 0 -13 7 -20 20 -20 13 0 20 -7 20 -20 0 -18
7 -20 80 -20 73 0 80 2 80 20 0 13 7 20 20 20 13 0 20 7 20 20 0 13 7 20 20
20 17 0 20 7 20 40 l0 40 -40 0 c-33 0 -40 -3 -40 -20 0 -13 -7 -20 -20 -20
-13 0 -20 -7 -20 -20 0 -17 -7 -20 -40 -20 -33 0 -40 3 -40 20 0 13 -7 20 -20
20 -19 0 -20 7 -20 120 l0 120 60 0 60 0 0 40 0 40 -60 0 -60 0 0 60 0 60 -40
0 -40 0 0 -60z"/>
<path d="M8170 8510 l0 -280 40 0 40 0 0 160 c0 153 1 160 20 160 13 0 20 7
20 20 0 18 7 20 80 20 73 0 80 -2 80 -20 0 -13 7 -20 20 -20 19 0 20 -7 20
-160 l0 -160 40 0 40 0 0 180 c0 173 -1 180 -20 180 -13 0 -20 7 -20 20 0 13
-7 20 -20 20 -13 0 -20 7 -20 20 0 19 -7 20 -100 20 -93 0 -100 -1 -100 -20 0
-13 -7 -20 -20 -20 -18 0 -20 7 -20 80 l0 80 -40 0 -40 0 0 -280z"/>
<path d="M4890 8650 c0 -13 -7 -20 -20 -20 -13 0 -20 -7 -20 -20 0 -13 -7 -20
-20 -20 -17 0 -20 -7 -20 -40 0 -33 3 -40 20 -40 13 0 20 -7 20 -20 0 -17 7
-20 40 -20 33 0 40 -3 40 -20 0 -17 7 -20 40 -20 33 0 40 -3 40 -20 0 -17 7
-20 40 -20 l40 0 0 -40 0 -40 -80 0 c-73 0 -80 2 -80 20 0 13 -7 20 -20 20
-13 0 -20 7 -20 20 0 17 -7 20 -40 20 l-40 0 0 -40 c0 -33 3 -40 20 -40 13 0
20 -7 20 -20 0 -13 7 -20 20 -20 13 0 20 -7 20 -20 0 -19 7 -20 120 -20 113 0
120 1 120 20 0 13 7 20 20 20 13 0 20 7 20 20 0 13 7 20 20 20 17 0 20 7 20
40 0 33 -3 40 -20 40 -13 0 -20 7 -20 20 0 13 -7 20 -20 20 -13 0 -20 7 -20
20 0 17 -7 20 -40 20 -33 0 -40 3 -40 20 0 18 -7 20 -60 20 l-60 0 0 40 0 40
80 0 c73 0 80 -2 80 -20 0 -13 7 -20 20 -20 13 0 20 -7 20 -20 0 -17 7 -20 40
-20 l40 0 0 40 c0 33 -3 40 -20 40 -13 0 -20 7 -20 20 0 13 -7 20 -20 20 -13
0 -20 7 -20 20 0 19 -7 20 -120 20 -113 0 -120 -1 -120 -20z"/>
<path d="M6330 8650 c0 -13 -7 -20 -20 -20 -13 0 -20 -7 -20 -20 0 -13 -7 -20
-20 -20 -19 0 -20 -7 -20 -140 0 -133 1 -140 20 -140 13 0 20 -7 20 -20 0 -13
7 -20 20 -20 13 0 20 -7 20 -20 0 -19 7 -20 120 -20 113 0 120 1 120 20 0 13
7 20 20 20 13 0 20 7 20 20 0 13 7 20 20 20 19 0 20 7 20 140 0 133 -1 140
-20 140 -13 0 -20 7 -20 20 0 13 -7 20 -20 20 -13 0 -20 7 -20 20 0 19 -7 20
-120 20 -113 0 -120 -1 -120 -20z m200 -80 c0 -13 7 -20 20 -20 19 0 20 -7 20
-100 0 -93 -1 -100 -20 -100 -13 0 -20 -7 -20 -20 0 -18 -7 -20 -80 -20 -73 0
-80 2 -80 20 0 13 -7 20 -20 20 -19 0 -20 7 -20 100 0 93 1 100 20 100 13 0
20 7 20 20 0 18 7 20 80 20 73 0 80 -2 80 -20z"/>
<path d="M6810 8650 c0 -13 -7 -20 -20 -20 -13 0 -20 -7 -20 -20 0 -13 -7 -20
-20 -20 -19 0 -20 -7 -20 -100 0 -93 1 -100 20 -100 13 0 20 -7 20 -20 0 -13
7 -20 20 -20 13 0 20 -7 20 -20 0 -19 7 -20 100 -20 93 0 100 1 100 20 0 13 7
20 20 20 17 0 20 -7 20 -40 0 -33 -3 -40 -20 -40 -13 0 -20 -7 -20 -20 0 -19
-7 -20 -120 -20 l-120 0 0 -40 0 -40 140 0 c133 0 140 1 140 20 0 13 7 20 20
20 13 0 20 7 20 20 0 13 7 20 20 20 19 0 20 7 20 220 l0 220 -40 0 c-33 0 -40
-3 -40 -20 0 -13 -7 -20 -20 -20 -13 0 -20 7 -20 20 0 19 -7 20 -100 20 -93 0
-100 -1 -100 -20z m200 -80 c0 -13 7 -20 20 -20 18 0 20 -7 20 -60 0 -53 -2
-60 -20 -60 -13 0 -20 -7 -20 -20 0 -18 -7 -20 -80 -20 -73 0 -80 2 -80 20 0
13 -7 20 -20 20 -18 0 -20 7 -20 60 0 53 2 60 20 60 13 0 20 7 20 20 0 18 7
20 80 20 73 0 80 -2 80 -20z"/>
<path d="M7290 8650 c0 -13 -7 -20 -20 -20 -13 0 -20 -7 -20 -20 0 -13 -7 -20
-20 -20 -19 0 -20 -7 -20 -140 0 -133 1 -140 20 -140 13 0 20 -7 20 -20 0 -13
7 -20 20 -20 13 0 20 -7 20 -20 0 -19 7 -20 160 -20 l160 0 0 40 0 40 -140 0
c-133 0 -140 1 -140 20 0 13 -7 20 -20 20 -13 0 -20 7 -20 20 0 19 7 20 160
20 l160 0 0 100 c0 93 -1 100 -20 100 -13 0 -20 7 -20 20 0 13 -7 20 -20 20
-13 0 -20 7 -20 20 0 19 -7 20 -120 20 -113 0 -120 -1 -120 -20z m200 -80 c0
-13 7 -20 20 -20 17 0 20 -7 20 -40 l0 -40 -120 0 -120 0 0 40 c0 33 3 40 20
40 13 0 20 7 20 20 0 18 7 20 80 20 73 0 80 -2 80 -20z"/>
<path d="M8730 8650 c0 -13 -7 -20 -20 -20 -13 0 -20 -7 -20 -20 0 -13 -7 -20
-20 -20 -19 0 -20 -7 -20 -140 0 -133 1 -140 20 -140 13 0 20 -7 20 -20 0 -13
7 -20 20 -20 13 0 20 -7 20 -20 0 -19 7 -20 160 -20 l160 0 0 40 0 40 -140 0
c-133 0 -140 1 -140 20 0 13 -7 20 -20 20 -13 0 -20 7 -20 20 0 19 7 20 160
20 l160 0 0 100 c0 93 -1 100 -20 100 -13 0 -20 7 -20 20 0 13 -7 20 -20 20
-13 0 -20 7 -20 20 0 19 -7 20 -120 20 -113 0 -120 -1 -120 -20z m200 -80 c0
-13 7 -20 20 -20 17 0 20 -7 20 -40 l0 -40 -120 0 -120 0 0 40 c0 33 3 40 20
40 13 0 20 7 20 20 0 18 7 20 80 20 73 0 80 -2 80 -20z"/>
<path d="M9130 8450 l0 -220 40 0 40 0 0 160 c0 153 1 160 20 160 13 0 20 7
20 20 0 18 7 20 80 20 73 0 80 -2 80 -20 0 -13 7 -20 20 -20 13 0 20 -7 20
-20 0 -17 7 -20 40 -20 l40 0 0 40 c0 33 -3 40 -20 40 -13 0 -20 7 -20 20 0
13 -7 20 -20 20 -13 0 -20 7 -20 20 0 19 -7 20 -100 20 -93 0 -100 -1 -100
-20 0 -13 -7 -20 -20 -20 -13 0 -20 7 -20 20 0 17 -7 20 -40 20 l-40 0 0 -220z"/>
<path d="M4995 7110 c-3 -5 -34 -10 -69 -10 -39 0 -69 -5 -82 -15 -10 -8 -38
-15 -61 -15 -23 0 -45 -4 -48 -10 -3 -5 -14 -10 -23 -10 -9 0 -30 -7 -46 -15
-15 -8 -37 -15 -47 -15 -10 0 -39 -11 -65 -25 -26 -14 -56 -25 -68 -25 -12 0
-30 -7 -40 -15 -11 -8 -27 -15 -36 -15 -22 0 -94 -35 -110 -54 -7 -9 -18 -16
-25 -16 -7 0 -28 -13 -46 -30 -19 -16 -39 -30 -45 -30 -5 0 -25 -16 -44 -35
-19 -19 -41 -35 -49 -35 -17 0 -111 -94 -111 -112 0 -7 -23 -35 -50 -62 -28
-27 -50 -55 -50 -61 0 -6 -18 -28 -40 -50 -21 -22 -39 -46 -40 -53 0 -7 -4
-20 -9 -30 -16 -32 -33 -87 -38 -120 -3 -18 -9 -35 -14 -38 -5 -3 -9 -13 -9
-22 0 -9 -7 -30 -15 -46 -8 -15 -15 -36 -15 -46 0 -9 -7 -30 -15 -46 -9 -20
-14 -55 -12 -106 2 -65 6 -80 25 -101 19 -21 22 -29 13 -45 -6 -12 -11 -43
-11 -71 0 -27 -4 -53 -10 -56 -5 -3 -10 -39 -10 -78 -1 -43 -6 -82 -15 -97
-17 -29 -21 -195 -5 -205 6 -3 10 -38 10 -77 0 -38 6 -84 14 -101 15 -36 36
-116 43 -162 3 -16 13 -49 24 -72 10 -24 19 -48 19 -55 0 -7 7 -26 15 -41 13
-25 13 -32 0 -57 -9 -18 -15 -57 -15 -105 0 -46 -6 -87 -14 -103 -15 -29 -68
-80 -131 -126 -46 -34 -59 -46 -102 -101 -17 -22 -50 -60 -73 -85 -72 -78
-155 -201 -207 -310 -69 -143 -83 -176 -83 -193 0 -8 -7 -28 -15 -43 -8 -16
-15 -38 -15 -49 0 -11 -10 -45 -22 -75 -15 -39 -23 -89 -29 -175 -4 -66 -12
-141 -18 -167 -7 -32 -7 -79 1 -155 5 -59 13 -376 17 -703 4 -369 10 -601 16
-610 6 -9 13 -240 18 -600 4 -322 10 -708 13 -858 l5 -272 1998 0 1998 0 2
387 c1 213 6 394 11 403 5 9 11 245 15 526 3 280 10 550 16 599 5 50 11 311
13 580 2 270 8 512 13 538 6 31 7 64 1 90 -6 23 -14 101 -18 172 -5 72 -15
162 -23 200 -20 98 -94 318 -116 346 -10 13 -35 56 -56 94 -70 130 -89 160
-132 207 -24 26 -43 51 -43 57 0 17 -256 271 -273 271 -25 0 -32 47 -13 86 9
19 16 50 16 69 0 18 5 37 11 41 17 10 -3 113 -31 154 -18 27 -17 33 16 140 9
30 19 73 21 95 3 22 10 46 16 54 6 7 13 56 15 110 2 53 8 100 13 105 14 15 11
160 -3 174 -8 8 -13 44 -13 92 -1 48 -6 85 -13 92 -7 7 -12 29 -12 49 0 21 -4
41 -10 44 -18 11 -11 45 15 73 23 25 25 35 25 118 0 69 -4 95 -15 104 -8 7
-15 25 -15 41 0 15 -4 31 -10 34 -5 3 -10 14 -10 23 0 9 -7 30 -15 46 -8 15
-15 38 -15 50 0 11 -7 30 -15 40 -8 11 -15 30 -15 42 0 13 -4 26 -10 29 -5 3
-10 14 -10 24 0 9 -18 35 -40 56 -22 21 -40 44 -40 50 0 5 -18 30 -40 53 -22
24 -40 49 -40 56 0 16 -114 126 -130 126 -6 0 -28 16 -48 35 -20 19 -41 35
-46 35 -4 0 -24 14 -43 30 -18 17 -40 30 -47 30 -7 0 -23 11 -36 25 -13 14
-31 25 -41 25 -10 0 -21 5 -24 10 -3 6 -17 10 -29 10 -13 0 -29 7 -36 15 -7 8
-18 15 -25 15 -7 0 -26 7 -41 15 -16 8 -37 15 -46 15 -9 0 -20 5 -23 10 -3 6
-18 10 -33 10 -15 0 -36 7 -46 15 -11 8 -32 15 -48 15 -15 0 -28 5 -28 10 0 6
-13 10 -28 10 -16 0 -37 7 -48 15 -13 10 -44 14 -96 15 -42 0 -80 5 -83 10 -4
6 -62 10 -140 10 -78 0 -136 -4 -140 -10z m224 -350 c43 0 61 -34 61 -115 0
-79 -9 -96 -68 -127 -47 -25 -80 -22 -127 10 -29 20 -41 36 -43 57 -2 17 -10
37 -18 46 -13 14 -13 18 1 29 8 7 15 24 15 38 0 34 27 62 60 62 15 0 33 7 40
15 11 13 15 13 33 0 12 -8 32 -15 46 -15z"/>
</g>
</svg>
